<svg width="24" height="24" viewBox="0 0 24 24" fill="none" xmlns="http://www.w3.org/2000/svg">
<path d="M12 2C6.47715 2 2 6.47715 2 12C2 13.8213 2.48697 15.5288 3.33782 17.0094L2 22L7.14238 20.7302C8.61462 21.5414 10.2796 22 12 22C17.5228 22 22 17.5228 22 12C22 6.47715 17.5228 2 12 2Z" stroke="#1C1C16" stroke-width="1.5" stroke-linecap="round" stroke-linejoin="round"/>
<path d="M16.5 16.5C16.5 16.5 15 17.5 12 14.5C9 11.5 10 10 10 10L11.5 8.5C11.7761 8.22386 11.7761 7.77614 11.5 7.5L9.5 5.5C9.22386 5.22386 8.77614 5.22386 8.5 5.5L7.5 6.5C7.5 6.5 6 9 9 12C12 15 14.5 16.5 14.5 16.5L15.5 15.5C15.7761 15.2238 16.2239 15.2238 16.5 15.5L18.5 17.5C18.7761 17.7761 18.7761 18.2239 18.5 18.5L16.5 16.5Z" stroke="#1C1C16" stroke-width="1.5" stroke-linecap="round" stroke-linejoin="round"/>
</svg>