<svg id="Layer_1" data-name="Layer 1" xmlns="http://www.w3.org/2000/svg" viewBox="0 0 80 80"><defs><style>.cls-1{fill:#f92d18;}.cls-2{fill:#fff;}</style></defs><path class="cls-1" d="M6,0H74a6,6,0,0,1,6,6V74a6,6,0,0,1-6,6H6a6,6,0,0,1-6-6V6A6,6,0,0,1,6,0Z"/><path class="cls-2" d="M22,21.84a9.79,9.79,0,0,1,.65-1.57,3.22,3.22,0,0,1,2.59-1.58c1.35-.08,2.72,0,4.11,0v6.25H56.46V18.65h1.82a20.65,20.65,0,0,1,2.49.08,3.5,3.5,0,0,1,3,3.27c.08,1.78,0,3.57,0,5.4H22Z"/><path class="cls-2" d="M22,29.86h7.33v9.81H22Z"/><path class="cls-2" d="M22,43.36H24.4V60.53H22Z"/><path class="cls-2" d="M61.38,60.53V43.38h2.45V60.53Z"/><path class="cls-2" d="M54,29.88v27H31.79V29.88Z"/><path class="cls-2" d="M54,22.48H31.79V18.67H54Z"/><path class="cls-2" d="M56.48,39.64V29.88H63.8v9.76Z"/><path class="cls-2" d="M31.78,32.28v-2.4H54v2.4Z"/></svg>